<svg xmlns="http://www.w3.org/2000/svg" viewBox="0 0 300 400" width="300" height="400" role="img" aria-label="تخت ICU و CCU">
  <defs>
    <linearGradient id="p4" x1="0" y1="0" x2="1" y2="1">
      <stop offset="0%" stop-color="#0e2833"/>
      <stop offset="100%" stop-color="#050d13"/>
    </linearGradient>
  </defs>
  <rect width="300" height="400" fill="url(#p4)"/>
  <circle cx="150" cy="162" r="112" fill="#2a93a8" opacity=".12"/>
  <g fill="none" stroke="#7fc6d8" stroke-width="3.4" stroke-linecap="round" stroke-linejoin="round" opacity=".85">
    <!-- مانیتور علائم حیاتی -->
    <rect x="58" y="86" width="184" height="116" rx="12"/>
    <path d="M58 116h184"/>
    <path d="M78 162h26l12-26 18 44 12-24 10 14h32"/>
    <circle cx="74" cy="101" r="4" fill="#7fc6d8"/>
    <!-- تخت -->
    <path d="M62 264h122v-14a5 5 0 0 0-5-5H67a5 5 0 0 0-5 5z"/>
    <path d="M186 250l46-28a5 5 0 0 1 7 4v14l-53 24z"/>
    <path d="M60 268h178a5 5 0 0 1 5 5v4a5 5 0 0 1-5 5H60a5 5 0 0 1-5-5v-4a5 5 0 0 1 5-5z"/>
    <path d="M86 282v20M212 282v20"/>
    <circle cx="86" cy="314" r="11"/>
    <circle cx="212" cy="314" r="11"/>
  </g>
</svg>
