<svg xmlns="http://www.w3.org/2000/svg" viewBox="0 0 400 300" width="400" height="300" role="img" aria-label="تصویر محصول">
  <rect width="400" height="300" fill="#e9eef1"/>
  <g fill="none" stroke="#5c7a89" stroke-linecap="round" stroke-linejoin="round">
    <path d="M232 168l82-76a7 7 0 0 1 10 0l14 15a7 7 0 0 1 0 10l-88 81z" stroke-width="3" fill="#d4dee4"/>
    <path d="M148 172h96a6 6 0 0 1 6 6v12a6 6 0 0 1-6 6h-96a6 6 0 0 1-6-6v-12a6 6 0 0 1 6-6z" stroke-width="3" fill="#d4dee4"/>
    <path d="M142 178l-62 18a6 6 0 0 0-4 7l2 11a6 6 0 0 0 7 4l59-17z" stroke-width="3" fill="#d4dee4"/>
    <path d="M176 196h44v38h-44z" stroke-width="3" fill="#d4dee4"/>
    <path d="M140 234h116a7 7 0 0 1 7 7v5a7 7 0 0 1-7 7H140a7 7 0 0 1-7-7v-5a7 7 0 0 1 7-7z" stroke-width="3" fill="#d4dee4"/>
    <g stroke-width="2.4">
      <circle cx="146" cy="272" r="10"/>
      <circle cx="250" cy="272" r="10"/>
    </g>
    <g stroke-width="2" opacity=".5">
      <path d="M262 132l20 21M286 108l20 21"/>
      <path d="M186 208h24M186 218h24"/>
    </g>
  </g>
</svg>
